<?xml version="1.0" encoding="utf-8"?>
<!-- Generator: Adobe Illustrator 16.0.0, SVG Export Plug-In . SVG Version: 6.00 Build 0)  -->
<!DOCTYPE svg PUBLIC "-//W3C//DTD SVG 1.1//EN" "http://www.w3.org/Graphics/SVG/1.1/DTD/svg11.dtd">
<svg version="1.1" id="Layer_1" xmlns="http://www.w3.org/2000/svg" xmlns:xlink="http://www.w3.org/1999/xlink" x="0px" y="0px"
	 width="200px" height="52.398px" viewBox="0 0 200 52.398" enable-background="new 0 0 200 52.398" xml:space="preserve">
<g>
	<g>
		<path fill="#FFFFFF" stroke="#0071BC" stroke-width="0.5" stroke-miterlimit="10" d="M5.007,1.419h5.367l6.707,22.384
			l6.768-22.384h5.361l4.854,32.09h-5.326l-3.102-20.268L19.489,33.51h-4.853L8.544,13.242L5.369,33.51H0L5.007,1.419z"/>
		<path fill="#FFFFFF" stroke="#0071BC" stroke-width="0.5" stroke-miterlimit="10" d="M47.911,9.164c2.018,0,3.916,0.56,5.693,1.68
			c1.777,1.119,3.163,2.64,4.159,4.56c0.996,1.919,1.496,3.991,1.496,6.217c0,2.24-0.502,4.335-1.506,6.282
			c-1.002,1.949-2.369,3.473-4.1,4.57c-1.731,1.098-3.639,1.65-5.723,1.65c-3.068,0-5.688-1.212-7.856-3.635
			c-2.171-2.422-3.255-5.361-3.255-8.824c0-3.709,1.225-6.8,3.675-9.274C42.645,10.239,45.117,9.164,47.911,9.164z M47.999,14.77
			c-1.669,0-3.058,0.644-4.167,1.931c-1.11,1.286-1.665,2.935-1.665,4.94c0,2.067,0.548,3.74,1.644,5.017
			c1.098,1.282,2.486,1.921,4.167,1.921s3.081-0.646,4.196-1.942c1.116-1.293,1.675-2.958,1.675-4.997
			c0-2.034-0.547-3.688-1.646-4.961C51.109,15.407,49.706,14.77,47.999,14.77z"/>
		<path fill="#FFFFFF" stroke="#0071BC" stroke-width="0.5" stroke-miterlimit="10" d="M68.974,0.61v11.78
			c0.97-1.076,2.018-1.882,3.147-2.42c1.127-0.538,2.333-0.807,3.619-0.807c2.791,0,5.165,1.169,7.119,3.511
			c1.954,2.342,2.931,5.348,2.931,9.012c0,3.533-1.01,6.49-3.029,8.866c-2.02,2.381-4.412,3.57-7.179,3.57
			c-1.231,0-2.38-0.246-3.443-0.731c-1.063-0.49-2.116-1.287-3.165-2.392v2.51h-5.33V0.61H68.974z M74.619,14.66
			c-1.692,0-3.095,0.64-4.21,1.92c-1.114,1.28-1.67,2.953-1.67,5.017c0,2.111,0.556,3.816,1.67,5.117
			c1.115,1.303,2.518,1.954,4.21,1.954c1.638,0,3.019-0.663,4.139-1.986c1.121-1.323,1.682-3.01,1.682-5.061
			c0-2.036-0.55-3.706-1.653-5.007C77.688,15.311,76.297,14.66,74.619,14.66z"/>
		<path fill="#FFFFFF" stroke="#0071BC" stroke-width="0.5" stroke-miterlimit="10" d="M92.329,0c0.942,0,1.749,0.377,2.424,1.135
			c0.672,0.757,1.008,1.673,1.008,2.748c0,1.062-0.333,1.968-1.001,2.716c-0.667,0.749-1.464,1.125-2.392,1.125
			c-0.956,0-1.769-0.384-2.44-1.147c-0.674-0.761-1.013-1.689-1.013-2.78c0-1.047,0.333-1.941,1.001-2.685
			C90.582,0.371,91.388,0,92.329,0z M89.645,9.773h5.37V33.51h-5.37V9.773z"/>
	</g>
	<g>
		<path fill="#FFFFFF" stroke="#0071BC" stroke-width="0.5" stroke-miterlimit="10" d="M100.855,1.419h5.836
			c3.196,0,5.472,0.314,6.824,0.948c1.355,0.633,2.447,1.684,3.273,3.153c0.825,1.47,1.237,3.208,1.237,5.214
			c0,2.108-0.457,3.873-1.368,5.29c-0.911,1.418-2.284,2.49-4.118,3.218l6.852,14.268h-6.021l-6.505-13.592h-0.504V33.51h-5.507
			V1.419z M106.362,13.963h1.726c1.75,0,2.957-0.255,3.618-0.766c0.662-0.511,0.989-1.358,0.989-2.54c0-0.701-0.16-1.31-0.489-1.828
			c-0.327-0.519-0.765-0.891-1.315-1.117c-0.549-0.225-1.554-0.339-3.016-0.339h-1.513V13.963z"/>
		<path fill="#FFFFFF" stroke="#0071BC" stroke-width="0.5" stroke-miterlimit="10" d="M144.694,23.366h-17.247
			c0.249,1.686,0.911,3.027,1.996,4.024c1.08,0.999,2.461,1.496,4.14,1.496c2.006,0,3.73-0.778,5.173-2.334l4.521,2.355
			c-1.123,1.776-2.476,3.088-4.049,3.937c-1.574,0.852-3.443,1.28-5.605,1.28c-3.357,0-6.092-1.177-8.201-3.524
			c-2.114-2.351-3.165-5.292-3.165-8.826c0-3.622,1.049-6.628,3.154-9.02c2.106-2.393,4.744-3.59,7.915-3.59
			c3.373,0,6.116,1.197,8.224,3.59c2.112,2.391,3.168,5.551,3.168,9.478L144.694,23.366z M139.327,18.675
			c-0.356-1.324-1.057-2.4-2.103-3.229c-1.041-0.827-2.254-1.244-3.633-1.244c-1.498,0-2.808,0.465-3.939,1.397
			c-0.709,0.582-1.365,1.608-1.974,3.076H139.327z"/>
		<path fill="#FFFFFF" stroke="#0071BC" stroke-width="0.5" stroke-miterlimit="10" d="M162.14,13.089l-3.325,3.688
			c-1.349-1.483-2.577-2.225-3.676-2.225c-0.605,0-1.077,0.141-1.418,0.425s-0.511,0.635-0.511,1.059c0,0.32,0.11,0.614,0.325,0.883
			c0.216,0.269,0.75,0.636,1.604,1.103l1.963,1.088c2.073,1.135,3.5,2.29,4.271,3.469c0.774,1.179,1.161,2.561,1.161,4.146
			c0,2.111-0.697,3.869-2.094,5.281c-1.398,1.409-3.271,2.117-5.616,2.117c-3.121,0-5.61-1.355-7.475-4.061l3.306-3.992
			c0.627,0.815,1.366,1.473,2.213,1.975c0.845,0.501,1.597,0.753,2.252,0.753c0.707,0,1.278-0.189,1.709-0.569
			c0.435-0.376,0.65-0.814,0.65-1.309c0-0.916-0.784-1.811-2.34-2.685l-1.81-1.001c-3.462-1.935-5.189-4.356-5.189-7.267
			c0-1.875,0.648-3.479,1.95-4.81c1.306-1.33,2.976-1.995,5.008-1.995c1.39,0,2.7,0.338,3.924,1.014S161.288,11.823,162.14,13.089z"
			/>
		<path fill="#FFFFFF" stroke="#0071BC" stroke-width="0.5" stroke-miterlimit="10" d="M167.41,1.026h5.37v8.747h3.187V14.9h-3.187
			v18.61h-5.37V14.9h-2.752V9.773h2.752V1.026z"/>
		<path fill="#FFFFFF" stroke="#0071BC" stroke-width="0.5" stroke-miterlimit="10" d="M194.632,9.773H200V33.51h-5.368V31
			c-1.047,1.105-2.102,1.902-3.154,2.392c-1.055,0.485-2.198,0.731-3.427,0.731c-2.765,0-5.156-1.189-7.171-3.57
			c-2.019-2.376-3.025-5.333-3.025-8.866c0-3.665,0.977-6.67,2.927-9.012c1.95-2.341,4.322-3.511,7.112-3.511
			c1.282,0,2.489,0.269,3.609,0.807c1.129,0.538,2.17,1.344,3.129,2.42V9.773z M188.986,14.66c-1.657,0-3.036,0.651-4.138,1.954
			c-1.097,1.301-1.644,2.971-1.644,5.007c0,2.05,0.556,3.738,1.674,5.061c1.114,1.324,2.489,1.986,4.127,1.986
			c1.685,0,3.086-0.65,4.195-1.954c1.112-1.3,1.665-3.006,1.665-5.117c0-2.064-0.553-3.737-1.665-5.017
			C192.092,15.3,190.687,14.66,188.986,14.66z"/>
	</g>
</g>
<g>
	<path fill="#E6E6E6" d="M6.555,41.65l0.776,7.238l5.009-7.238h3.689l-0.094,0.287c-0.507,0-0.893,0.108-1.157,0.326
		c-0.264,0.217-0.49,0.647-0.675,1.29l-1.942,6.74c-0.124,0.424-0.186,0.741-0.186,0.947c0,0.19,0.078,0.347,0.233,0.462
		c0.155,0.116,0.461,0.181,0.917,0.191l-0.07,0.287H7.797l0.093-0.287c0.564,0,0.981-0.107,1.25-0.323
		c0.269-0.216,0.497-0.641,0.683-1.277l1.981-6.827l-6.027,8.715H5.459l-0.947-8.885L2.5,50.294
		c-0.083,0.285-0.124,0.522-0.124,0.714c0,0.26,0.089,0.468,0.268,0.626c0.179,0.157,0.482,0.244,0.913,0.261l-0.078,0.287H0
		l0.07-0.287c0.419-0.017,0.74-0.104,0.963-0.265c0.394-0.29,0.679-0.735,0.854-1.336l2.275-7.781
		c-0.217-0.239-0.413-0.394-0.587-0.467c-0.173-0.072-0.464-0.108-0.873-0.108l0.093-0.287H6.555z"/>
	<path fill="#E6E6E6" d="M19.904,44.982c0.409,0,0.794,0.095,1.153,0.281c0.36,0.191,0.632,0.453,0.815,0.79
		c0.184,0.336,0.276,0.709,0.276,1.118c0,0.839-0.234,1.677-0.703,2.516s-1.086,1.5-1.853,1.984
		c-0.766,0.483-1.538,0.727-2.314,0.727c-0.704,0-1.249-0.211-1.634-0.629c-0.386-0.42-0.579-0.933-0.579-1.538
		c0-0.721,0.144-1.395,0.431-2.024c0.287-0.628,0.652-1.176,1.094-1.646c0.443-0.468,0.952-0.85,1.527-1.142
		C18.692,45.129,19.288,44.982,19.904,44.982z M19.585,45.394c-0.274,0-0.502,0.079-0.683,0.241
		c-0.362,0.325-0.771,1.088-1.227,2.287c-0.456,1.197-0.684,2.278-0.684,3.242c0,0.238,0.073,0.435,0.218,0.59
		s0.316,0.233,0.513,0.233c0.201,0,0.379-0.063,0.535-0.188c0.228-0.186,0.507-0.604,0.839-1.254
		c0.332-0.649,0.603-1.366,0.815-2.15s0.318-1.503,0.318-2.155c0-0.269-0.065-0.479-0.194-0.625
		C19.907,45.467,19.757,45.394,19.585,45.394z"/>
	<path fill="#E6E6E6" d="M27.655,41.409l-1.343,4.684c0.409-0.444,0.75-0.742,1.025-0.891c0.274-0.147,0.572-0.22,0.893-0.22
		c0.621,0,1.086,0.224,1.394,0.67c0.309,0.449,0.462,0.965,0.462,1.551c0,1.398-0.507,2.646-1.521,3.743
		c-0.901,0.968-1.927,1.452-3.076,1.452c-0.854,0-1.758-0.252-2.71-0.754l2.376-8.239c0.114-0.389,0.171-0.654,0.171-0.801
		c0-0.124-0.052-0.222-0.156-0.295c-0.145-0.104-0.365-0.146-0.66-0.131l0.085-0.311l2.594-0.459H27.655z M24.673,51.723
		c0.244,0.155,0.463,0.232,0.66,0.232c0.274,0,0.504-0.054,0.691-0.163c0.294-0.175,0.604-0.493,0.928-0.955
		c0.323-0.461,0.594-1.017,0.811-1.669s0.326-1.304,0.326-1.949c0-0.367-0.082-0.648-0.248-0.839
		c-0.166-0.191-0.357-0.287-0.575-0.287c-0.361,0-0.678,0.176-0.947,0.527c-0.181,0.228-0.377,0.712-0.59,1.452L24.673,51.723z"/>
	<path fill="#E6E6E6" d="M34.636,44.982l-1.591,5.521c-0.088,0.315-0.132,0.522-0.132,0.621c0,0.056,0.023,0.11,0.07,0.159
		c0.046,0.048,0.096,0.074,0.147,0.074c0.088,0,0.175-0.039,0.264-0.117c0.233-0.191,0.513-0.538,0.838-1.041l0.264,0.156
		c-0.782,1.361-1.612,2.042-2.493,2.042c-0.336,0-0.605-0.095-0.804-0.284c-0.199-0.188-0.299-0.426-0.299-0.718
		c0-0.191,0.043-0.436,0.132-0.73l1.08-3.711c0.104-0.358,0.155-0.627,0.155-0.809c0-0.113-0.049-0.214-0.147-0.303
		c-0.098-0.088-0.233-0.132-0.404-0.132c-0.078,0-0.171,0.003-0.28,0.007l0.101-0.311l2.633-0.426H34.636z M34.155,41.409
		c0.321,0,0.591,0.112,0.812,0.334c0.22,0.224,0.33,0.491,0.33,0.809c0,0.313-0.111,0.585-0.334,0.807
		c-0.222,0.223-0.492,0.334-0.807,0.334c-0.311,0-0.578-0.111-0.8-0.334c-0.222-0.222-0.333-0.493-0.333-0.807
		c0-0.317,0.109-0.585,0.33-0.809C33.571,41.521,33.839,41.409,34.155,41.409z"/>
	<path fill="#E6E6E6" d="M40.033,41.409l-2.57,8.744c-0.15,0.519-0.226,0.843-0.226,0.972c0,0.067,0.022,0.124,0.066,0.17
		c0.044,0.048,0.092,0.07,0.144,0.07c0.093,0,0.182-0.036,0.264-0.108c0.249-0.202,0.526-0.544,0.832-1.025l0.303,0.14
		c-0.492,0.786-0.976,1.349-1.452,1.685c-0.327,0.229-0.673,0.343-1.041,0.343c-0.341,0-0.613-0.092-0.815-0.275
		c-0.202-0.185-0.303-0.405-0.303-0.663c0-0.192,0.062-0.5,0.186-0.925l2.097-7.16c0.114-0.396,0.171-0.656,0.171-0.785
		c0-0.125-0.054-0.224-0.163-0.295c-0.145-0.104-0.365-0.148-0.66-0.132l0.085-0.295l2.617-0.459H40.033z"/>
	<path fill="#E6E6E6" d="M41.905,49.269c-0.046,0.337-0.069,0.613-0.069,0.831c0,0.388,0.113,0.698,0.337,0.933
		c0.226,0.232,0.527,0.35,0.905,0.35c0.362,0,0.726-0.088,1.091-0.265c0.365-0.177,0.789-0.484,1.27-0.925l0.233,0.21
		c-0.595,0.72-1.175,1.232-1.74,1.538c-0.564,0.305-1.188,0.458-1.872,0.458c-0.864,0-1.462-0.207-1.794-0.621
		s-0.497-0.894-0.497-1.437c0-0.85,0.248-1.699,0.742-2.547c0.495-0.849,1.168-1.53,2.02-2.043c0.852-0.513,1.707-0.769,2.566-0.769
		c0.435,0,0.764,0.104,0.986,0.31c0.222,0.207,0.334,0.47,0.334,0.784c0,0.377-0.109,0.746-0.326,1.104
		c-0.3,0.485-0.678,0.878-1.134,1.177c-0.456,0.298-0.966,0.523-1.53,0.68C43.05,49.14,42.542,49.217,41.905,49.269z M41.975,48.864
		c0.456-0.066,0.809-0.158,1.061-0.275c0.251-0.116,0.497-0.304,0.737-0.56s0.449-0.579,0.625-0.97
		c0.176-0.392,0.264-0.758,0.264-1.1c0-0.145-0.04-0.259-0.12-0.341c-0.081-0.084-0.184-0.124-0.308-0.124
		c-0.248,0-0.527,0.173-0.838,0.52C42.827,46.646,42.353,47.597,41.975,48.864z"/>
	<path fill="#E6E6E6" d="M56.467,42.232l-1.173,4.086h0.357c0.942,0,1.629-0.125,2.062-0.373c0.433-0.25,0.798-0.689,1.099-1.321
		h0.287l-1.18,4.102h-0.272c0.047-0.276,0.07-0.497,0.07-0.669c0-0.284-0.084-0.517-0.252-0.698
		c-0.169-0.181-0.387-0.311-0.657-0.389c-0.176-0.052-0.541-0.077-1.095-0.077h-0.605l-1.01,3.533
		c-0.087,0.311-0.132,0.542-0.132,0.691c0,0.118,0.057,0.215,0.171,0.286c0.166,0.104,0.479,0.156,0.939,0.156
		c0.885,0,1.719-0.188,2.501-0.563c0.781-0.375,1.483-0.943,2.104-1.704H60l-1.095,2.89h-9.009l0.093-0.287
		c0.529,0,0.914-0.101,1.158-0.3c0.243-0.199,0.464-0.638,0.66-1.316l1.981-6.779c0.109-0.379,0.163-0.676,0.163-0.895
		c0-0.195-0.069-0.349-0.209-0.452c-0.14-0.107-0.458-0.179-0.955-0.215l0.085-0.287h8.395l-0.676,2.633h-0.28
		c-0.021-0.518-0.101-0.883-0.24-1.095c-0.217-0.331-0.506-0.574-0.866-0.728c-0.36-0.151-0.944-0.229-1.752-0.229H56.467z"/>
	<path fill="#E6E6E6" d="M65.312,44.982l-0.963,3.331c0.648-0.973,1.132-1.639,1.453-1.995c0.472-0.518,0.877-0.871,1.22-1.058
		c0.341-0.187,0.663-0.278,0.963-0.278c0.269,0,0.5,0.099,0.691,0.3c0.191,0.197,0.286,0.458,0.286,0.779
		c0,0.289-0.062,0.643-0.186,1.057l-0.994,3.315c-0.083,0.289-0.124,0.479-0.124,0.566c0,0.052,0.02,0.099,0.058,0.141
		c0.039,0.04,0.079,0.063,0.121,0.063c0.052,0,0.105-0.022,0.163-0.063c0.181-0.151,0.365-0.362,0.552-0.637
		c0.046-0.072,0.122-0.181,0.225-0.327l0.295,0.18c-0.762,1.278-1.562,1.917-2.399,1.917c-0.321,0-0.573-0.082-0.754-0.247
		c-0.181-0.167-0.271-0.373-0.271-0.623c0-0.217,0.063-0.54,0.187-0.97l0.971-3.315c0.067-0.219,0.102-0.379,0.102-0.482
		c0-0.057-0.024-0.107-0.07-0.15c-0.046-0.045-0.101-0.067-0.163-0.067c-0.198,0-0.435,0.135-0.716,0.404
		c-0.713,0.683-1.405,1.701-2.073,3.052l-0.637,2.308h-1.98l1.452-4.987c0.14-0.49,0.21-0.84,0.21-1.048
		c0-0.087-0.021-0.162-0.063-0.221c-0.042-0.061-0.108-0.106-0.201-0.14c-0.093-0.035-0.27-0.052-0.528-0.052l0.084-0.294
		l2.618-0.458H65.312z"/>
	<path fill="#E6E6E6" d="M75.136,41.409l-2.019,6.997c0.699-1.03,1.207-1.727,1.524-2.088c0.469-0.523,0.875-0.878,1.215-1.061
		c0.338-0.184,0.664-0.275,0.974-0.275c0.264,0,0.49,0.099,0.679,0.3c0.189,0.197,0.284,0.462,0.284,0.794
		c0,0.28-0.063,0.63-0.186,1.049l-0.986,3.309c-0.088,0.289-0.132,0.484-0.132,0.582c0,0.047,0.018,0.089,0.054,0.128
		c0.037,0.04,0.079,0.06,0.124,0.06c0.063,0,0.125-0.027,0.187-0.078c0.166-0.129,0.342-0.337,0.528-0.621
		c0.047-0.072,0.121-0.181,0.226-0.327l0.303,0.171c-0.446,0.735-0.867,1.241-1.266,1.515c-0.398,0.274-0.777,0.411-1.134,0.411
		c-0.321,0-0.571-0.082-0.752-0.247c-0.183-0.167-0.273-0.373-0.273-0.623c0-0.228,0.062-0.55,0.187-0.97l0.963-3.309
		c0.063-0.228,0.092-0.394,0.092-0.497c0-0.058-0.021-0.107-0.065-0.152c-0.044-0.043-0.094-0.065-0.152-0.065
		c-0.186,0-0.442,0.156-0.768,0.467c-0.673,0.637-1.346,1.637-2.019,2.997l-0.691,2.308h-1.926l2.547-8.776
		c0.104-0.373,0.155-0.64,0.155-0.801c0-0.129-0.052-0.229-0.155-0.302c-0.135-0.099-0.341-0.14-0.621-0.124l0.054-0.311
		l2.586-0.459H75.136z"/>
	<path fill="#E6E6E6" d="M86.375,45.09l-1.508,5.165l-0.155,0.629c-0.015,0.077-0.023,0.135-0.023,0.171
		c0,0.063,0.022,0.117,0.066,0.163c0.044,0.047,0.088,0.07,0.136,0.07c0.109,0,0.259-0.083,0.451-0.249
		c0.077-0.066,0.264-0.307,0.559-0.716l0.272,0.142c-0.369,0.673-0.761,1.162-1.178,1.472c-0.417,0.308-0.865,0.462-1.347,0.462
		c-0.296,0-0.52-0.076-0.675-0.229c-0.155-0.152-0.233-0.346-0.233-0.578c0-0.202,0.082-0.578,0.248-1.126l0.186-0.629
		c-0.6,1.029-1.178,1.759-1.731,2.19c-0.321,0.247-0.664,0.372-1.025,0.372c-0.476,0-0.821-0.196-1.032-0.586
		c-0.213-0.392-0.319-0.833-0.319-1.325c0-0.729,0.222-1.566,0.668-2.513c0.445-0.943,1.03-1.704,1.755-2.279
		c0.596-0.476,1.154-0.713,1.677-0.713c0.289,0,0.523,0.084,0.699,0.252c0.176,0.167,0.306,0.475,0.389,0.92l0.279-0.955
		L86.375,45.09z M83.889,46.566c0-0.42-0.064-0.723-0.194-0.908c-0.093-0.131-0.22-0.195-0.38-0.195
		c-0.16,0-0.326,0.078-0.497,0.232c-0.347,0.323-0.722,0.973-1.123,1.954c-0.4,0.98-0.601,1.829-0.601,2.543
		c0,0.274,0.044,0.474,0.136,0.595c0.09,0.121,0.189,0.183,0.298,0.183c0.234,0,0.469-0.134,0.707-0.404
		c0.342-0.385,0.65-0.852,0.923-1.405C83.645,48.187,83.889,47.322,83.889,46.566z"/>
	<path fill="#E6E6E6" d="M90.957,44.982l-0.963,3.331c0.646-0.973,1.131-1.639,1.452-1.995c0.47-0.518,0.877-0.871,1.219-1.058
		c0.341-0.187,0.662-0.278,0.963-0.278c0.269,0,0.499,0.099,0.69,0.3c0.192,0.197,0.288,0.458,0.288,0.779
		c0,0.289-0.061,0.643-0.186,1.057l-0.994,3.315c-0.083,0.289-0.125,0.479-0.125,0.566c0,0.052,0.019,0.099,0.058,0.141
		c0.039,0.04,0.08,0.063,0.121,0.063c0.052,0,0.105-0.022,0.163-0.063c0.182-0.151,0.365-0.362,0.551-0.637
		c0.047-0.072,0.122-0.181,0.226-0.327l0.295,0.18c-0.761,1.278-1.56,1.917-2.4,1.917c-0.321,0-0.572-0.082-0.753-0.247
		c-0.182-0.167-0.271-0.373-0.271-0.623c0-0.217,0.062-0.54,0.185-0.97l0.972-3.315c0.067-0.219,0.1-0.379,0.1-0.482
		c0-0.057-0.022-0.107-0.07-0.15c-0.047-0.045-0.101-0.067-0.163-0.067c-0.197,0-0.435,0.135-0.714,0.404
		c-0.715,0.683-1.406,1.701-2.074,3.052l-0.637,2.308h-1.98l1.453-4.987c0.14-0.49,0.209-0.84,0.209-1.048
		c0-0.087-0.021-0.162-0.063-0.221c-0.041-0.061-0.108-0.106-0.201-0.14c-0.093-0.035-0.269-0.052-0.528-0.052l0.084-0.294
		l2.618-0.458H90.957z"/>
	<path fill="#E6E6E6" d="M101.526,50.309l0.233,0.211c-0.502,0.599-0.997,1.04-1.484,1.319c-0.647,0.373-1.318,0.56-2.011,0.56
		c-0.465,0-0.879-0.101-1.239-0.3c-0.36-0.197-0.625-0.478-0.795-0.838c-0.171-0.359-0.257-0.729-0.257-1.107
		c0-0.849,0.23-1.683,0.692-2.504c0.46-0.821,1.069-1.471,1.825-1.949c0.755-0.479,1.498-0.718,2.228-0.718
		c0.585,0,1.026,0.128,1.321,0.388c0.295,0.259,0.441,0.58,0.441,0.963c0,0.347-0.111,0.642-0.334,0.886
		c-0.222,0.243-0.471,0.364-0.746,0.364c-0.238,0-0.435-0.078-0.593-0.232c-0.159-0.156-0.237-0.339-0.237-0.552
		c0-0.28,0.14-0.523,0.419-0.729c0.192-0.146,0.288-0.271,0.288-0.381c0-0.093-0.039-0.168-0.116-0.226
		c-0.104-0.082-0.238-0.124-0.404-0.124c-0.436,0-0.844,0.176-1.227,0.528c-0.508,0.466-0.896,1.056-1.165,1.771
		c-0.27,0.714-0.404,1.393-0.404,2.035c0,0.508,0.137,0.912,0.411,1.216c0.275,0.301,0.601,0.454,0.98,0.454
		c0.331,0,0.689-0.086,1.075-0.257C100.813,50.915,101.179,50.656,101.526,50.309z"/>
	<path fill="#E6E6E6" d="M105.099,49.269c-0.048,0.337-0.071,0.613-0.071,0.831c0,0.388,0.113,0.698,0.339,0.933
		c0.226,0.232,0.526,0.35,0.905,0.35c0.362,0,0.726-0.088,1.09-0.265c0.365-0.177,0.789-0.484,1.27-0.925l0.234,0.21
		c-0.595,0.72-1.176,1.232-1.741,1.538c-0.563,0.305-1.187,0.458-1.871,0.458c-0.865,0-1.463-0.207-1.794-0.621
		c-0.331-0.414-0.497-0.894-0.497-1.437c0-0.85,0.247-1.699,0.742-2.547c0.494-0.849,1.168-1.53,2.019-2.043
		c0.852-0.513,1.708-0.769,2.567-0.769c0.435,0,0.764,0.104,0.987,0.31c0.222,0.207,0.333,0.47,0.333,0.784
		c0,0.377-0.108,0.746-0.327,1.104c-0.3,0.485-0.678,0.878-1.133,1.177c-0.456,0.298-0.966,0.523-1.53,0.68
		C106.243,49.14,105.735,49.217,105.099,49.269z M105.167,48.864c0.456-0.066,0.81-0.158,1.061-0.275
		c0.25-0.116,0.498-0.304,0.738-0.56c0.24-0.256,0.449-0.579,0.625-0.97c0.176-0.392,0.264-0.758,0.264-1.1
		c0-0.145-0.041-0.259-0.121-0.341c-0.081-0.084-0.183-0.124-0.306-0.124c-0.249,0-0.528,0.173-0.839,0.52
		C106.019,46.646,105.546,47.597,105.167,48.864z"/>
	<path fill="#E6E6E6" d="M118.346,41.409l-2.523,8.69c-0.162,0.544-0.241,0.873-0.241,0.986c0,0.057,0.02,0.106,0.063,0.146
		c0.041,0.042,0.085,0.063,0.131,0.063c0.088,0,0.19-0.043,0.304-0.131c0.191-0.146,0.424-0.42,0.698-0.823l0.28,0.146
		c-0.731,1.274-1.532,1.911-2.407,1.911c-0.311,0-0.552-0.082-0.719-0.244c-0.168-0.163-0.253-0.371-0.253-0.626
		c0-0.244,0.068-0.59,0.203-1.041l0.233-0.791c-0.648,1.144-1.209,1.905-1.686,2.282c-0.362,0.28-0.715,0.42-1.056,0.42
		c-0.389,0-0.717-0.158-0.982-0.474c-0.268-0.316-0.401-0.777-0.401-1.383c0-0.771,0.172-1.532,0.513-2.283
		c0.342-0.751,0.737-1.376,1.185-1.879c0.447-0.503,0.875-0.861,1.28-1.077c0.407-0.213,0.807-0.32,1.2-0.32
		c0.203,0,0.382,0.04,0.542,0.124c0.157,0.082,0.337,0.237,0.539,0.466l0.575-1.934c0.14-0.478,0.209-0.818,0.209-1.025
		c0-0.124-0.046-0.23-0.14-0.318c-0.092-0.089-0.218-0.132-0.373-0.132c-0.072,0-0.162,0.007-0.271,0.022l0.077-0.303l2.556-0.474
		H118.346z M114.93,46.333c0-0.314-0.063-0.547-0.187-0.691c-0.125-0.145-0.269-0.218-0.435-0.218c-0.166,0-0.344,0.086-0.536,0.257
		c-0.366,0.331-0.752,0.997-1.153,1.999c-0.401,1.002-0.602,1.845-0.602,2.529c0,0.248,0.043,0.432,0.131,0.55
		c0.088,0.121,0.187,0.18,0.296,0.18c0.181,0,0.361-0.082,0.543-0.249c0.44-0.395,0.875-1.07,1.301-2.03
		C114.716,47.698,114.93,46.923,114.93,46.333z"/>
	<path fill="#E6E6E6" d="M126.167,47.04l-0.932,3.191c-0.136,0.451-0.202,0.781-0.202,0.994c0,0.196,0.081,0.354,0.241,0.474
		c0.161,0.12,0.494,0.185,1.001,0.195l-0.108,0.287h-5.071l0.092-0.287c0.509,0,0.879-0.1,1.114-0.296
		c0.237-0.196,0.453-0.638,0.649-1.32l1.958-6.757c0.108-0.378,0.163-0.675,0.163-0.893c0-0.207-0.067-0.365-0.202-0.475
		c-0.134-0.108-0.447-0.181-0.94-0.217l0.078-0.287h4.365c1.247,0,2.125,0.218,2.632,0.652c0.508,0.435,0.762,0.994,0.762,1.677
		c0,0.72-0.295,1.369-0.886,1.95c-0.372,0.362-1.032,0.675-1.979,0.94l0.947,3.191c0.252,0.854,0.475,1.37,0.664,1.544
		c0.188,0.178,0.503,0.272,0.943,0.289v0.287h-3.277l-1.491-5.142l-0.256,0.015C126.374,47.055,126.287,47.051,126.167,47.04z
		 M126.275,46.574c0.182,0.011,0.335,0.016,0.459,0.016c0.755,0,1.377-0.259,1.863-0.777c0.486-0.518,0.729-1.195,0.729-2.035
		c0-0.496-0.129-0.874-0.388-1.134c-0.258-0.259-0.601-0.388-1.024-0.388c-0.104,0-0.226,0.002-0.365,0.008L126.275,46.574z"/>
	<path fill="#E6E6E6" d="M134.694,49.269c-0.047,0.337-0.07,0.613-0.07,0.831c0,0.388,0.113,0.698,0.338,0.933
		c0.226,0.232,0.526,0.35,0.905,0.35c0.362,0,0.727-0.088,1.091-0.265c0.365-0.177,0.788-0.484,1.271-0.925l0.232,0.21
		c-0.596,0.72-1.176,1.232-1.74,1.538c-0.563,0.305-1.188,0.458-1.87,0.458c-0.865,0-1.464-0.207-1.796-0.621
		c-0.331-0.414-0.496-0.894-0.496-1.437c0-0.85,0.247-1.699,0.741-2.547c0.495-0.849,1.168-1.53,2.021-2.043
		c0.851-0.513,1.706-0.769,2.565-0.769c0.435,0,0.764,0.104,0.986,0.31c0.224,0.207,0.334,0.47,0.334,0.784
		c0,0.377-0.107,0.746-0.326,1.104c-0.3,0.485-0.679,0.878-1.134,1.177c-0.455,0.298-0.965,0.523-1.529,0.68
		C135.838,49.14,135.331,49.217,134.694,49.269z M134.765,48.864c0.455-0.066,0.809-0.158,1.06-0.275
		c0.251-0.116,0.497-0.304,0.737-0.56s0.449-0.579,0.625-0.97c0.176-0.392,0.265-0.758,0.265-1.1c0-0.145-0.04-0.259-0.121-0.341
		c-0.079-0.084-0.182-0.124-0.306-0.124c-0.249,0-0.527,0.173-0.838,0.52C135.615,46.646,135.142,47.597,134.765,48.864z"/>
	<path fill="#E6E6E6" d="M145.186,44.982l-0.341,2.398h-0.286c-0.043-0.621-0.232-1.11-0.571-1.468
		c-0.341-0.356-0.704-0.535-1.093-0.535c-0.237,0-0.435,0.069-0.59,0.209c-0.155,0.141-0.233,0.309-0.233,0.506
		c0,0.164,0.034,0.321,0.102,0.465c0.066,0.146,0.217,0.342,0.45,0.591c0.818,0.881,1.314,1.486,1.491,1.817
		s0.265,0.687,0.265,1.064c0,0.407-0.103,0.796-0.31,1.159c-0.21,0.366-0.518,0.659-0.929,0.88
		c-0.412,0.219-0.841,0.329-1.287,0.329c-0.299,0-0.67-0.06-1.109-0.179c-0.291-0.083-0.509-0.125-0.652-0.125
		c-0.13,0-0.231,0.02-0.303,0.06c-0.072,0.038-0.152,0.119-0.241,0.244h-0.286l0.379-2.585h0.25c0.182,0.624,0.35,1.072,0.509,1.338
		c0.157,0.267,0.369,0.48,0.631,0.637c0.266,0.159,0.52,0.238,0.764,0.238c0.284,0,0.52-0.09,0.704-0.27
		c0.188-0.178,0.28-0.392,0.28-0.64c0-0.244-0.061-0.479-0.181-0.708c-0.123-0.229-0.403-0.581-0.843-1.063
		c-0.607-0.659-1.006-1.165-1.196-1.522c-0.136-0.259-0.202-0.555-0.202-0.886c0-0.559,0.202-1.025,0.609-1.397
		c0.405-0.373,0.977-0.559,1.714-0.559c0.318,0,0.713,0.057,1.179,0.17c0.232,0.059,0.42,0.086,0.56,0.086
		c0.2,0,0.364-0.086,0.489-0.256H145.186z"/>
	<path fill="#E6E6E6" d="M150.017,43.087l-0.621,2.112h1.018l-0.271,0.894h-1.003l-1.297,4.505
		c-0.082,0.277-0.125,0.491-0.125,0.635c0,0.067,0.024,0.128,0.071,0.176c0.048,0.049,0.1,0.074,0.155,0.074
		c0.088,0,0.179-0.036,0.271-0.109c0.239-0.181,0.516-0.498,0.832-0.947l0.271,0.172c-0.357,0.62-0.752,1.076-1.181,1.366
		c-0.431,0.291-0.852,0.435-1.266,0.435c-0.354,0-0.627-0.091-0.82-0.268c-0.194-0.18-0.291-0.406-0.291-0.681
		c0-0.299,0.068-0.685,0.202-1.156l1.227-4.201h-1.057l0.156-0.575c0.663-0.242,1.222-0.528,1.678-0.854
		c0.455-0.325,1.005-0.851,1.646-1.576H150.017z"/>
	<path fill="#E6E6E6" d="M157.496,45.09l-1.507,5.165l-0.154,0.629c-0.019,0.077-0.024,0.135-0.024,0.171
		c0,0.063,0.021,0.117,0.064,0.163c0.046,0.047,0.091,0.07,0.137,0.07c0.109,0,0.261-0.083,0.45-0.249
		c0.079-0.066,0.265-0.307,0.56-0.716l0.271,0.142c-0.366,0.673-0.758,1.162-1.177,1.472c-0.415,0.308-0.865,0.462-1.346,0.462
		c-0.296,0-0.522-0.076-0.677-0.229c-0.155-0.152-0.233-0.346-0.233-0.578c0-0.202,0.084-0.578,0.25-1.126l0.186-0.629
		c-0.601,1.029-1.179,1.759-1.732,2.19c-0.321,0.247-0.661,0.372-1.023,0.372c-0.479,0-0.821-0.196-1.035-0.586
		c-0.21-0.392-0.318-0.833-0.318-1.325c0-0.729,0.224-1.566,0.668-2.513c0.446-0.943,1.03-1.704,1.757-2.279
		c0.595-0.476,1.154-0.713,1.676-0.713c0.291,0,0.523,0.084,0.7,0.252c0.175,0.167,0.304,0.475,0.388,0.92l0.28-0.955L157.496,45.09
		z M155.012,46.566c0-0.42-0.065-0.723-0.196-0.908c-0.093-0.131-0.221-0.195-0.379-0.195c-0.162,0-0.326,0.078-0.498,0.232
		c-0.348,0.323-0.72,0.973-1.123,1.954c-0.4,0.98-0.601,1.829-0.601,2.543c0,0.274,0.044,0.474,0.135,0.595s0.19,0.183,0.3,0.183
		c0.232,0,0.468-0.134,0.707-0.404c0.343-0.385,0.648-0.852,0.924-1.405C154.768,48.187,155.012,47.322,155.012,46.566z"/>
	<path fill="#E6E6E6" d="M162.056,44.982l-1.509,5.281c-0.071,0.242-0.107,0.41-0.107,0.504c0,0.047,0.017,0.083,0.054,0.107
		c0.041,0.043,0.09,0.063,0.148,0.063c0.237,0,0.556-0.212,0.954-0.637c0.569-0.615,1.169-1.501,1.796-2.656l0.706-2.376l1.964-0.07
		l-1.491,5.124c-0.123,0.436-0.186,0.685-0.186,0.748c0,0.041,0.02,0.083,0.059,0.127s0.079,0.066,0.12,0.066
		c0.071,0,0.143-0.032,0.209-0.093c0.186-0.149,0.434-0.454,0.737-0.908l0.265,0.185c-0.72,1.3-1.513,1.95-2.376,1.95
		c-0.321,0-0.574-0.082-0.757-0.244c-0.185-0.163-0.275-0.377-0.275-0.642c0-0.28,0.064-0.633,0.193-1.064l0.379-1.312
		c-0.672,0.979-1.161,1.639-1.467,1.98c-0.466,0.513-0.857,0.854-1.177,1.025c-0.319,0.17-0.623,0.256-0.911,0.256
		c-0.274,0-0.511-0.102-0.712-0.304c-0.197-0.2-0.299-0.457-0.299-0.768c0-0.265,0.064-0.62,0.193-1.063l0.88-3.107
		c0.144-0.507,0.218-0.849,0.218-1.024c0-0.078-0.022-0.147-0.063-0.206c-0.044-0.061-0.11-0.106-0.208-0.14
		c-0.095-0.035-0.273-0.052-0.532-0.052l0.078-0.294l2.648-0.458H162.056z"/>
	<path fill="#E6E6E6" d="M170.442,44.982l-1.173,4.364c0.961-2.128,1.688-3.438,2.175-3.93c0.284-0.29,0.583-0.435,0.9-0.435
		c0.218,0,0.392,0.078,0.528,0.236c0.133,0.158,0.202,0.382,0.202,0.672c0,0.503-0.123,0.923-0.366,1.266
		c-0.155,0.218-0.327,0.326-0.52,0.326c-0.209,0-0.364-0.096-0.468-0.288c-0.104-0.19-0.175-0.304-0.215-0.338
		c-0.043-0.032-0.087-0.049-0.134-0.049c-0.052,0-0.105,0.015-0.162,0.046c-0.114,0.063-0.263,0.213-0.448,0.454
		c-0.183,0.24-0.409,0.644-0.679,1.208s-0.479,1.041-0.629,1.433c-0.15,0.391-0.359,1.135-0.63,2.233h-1.879l1.283-5.15
		c0.092-0.382,0.138-0.636,0.138-0.761c0-0.139-0.023-0.248-0.074-0.325c-0.049-0.078-0.115-0.136-0.202-0.172
		c-0.084-0.035-0.26-0.055-0.53-0.055l0.069-0.224l2.345-0.513H170.442z"/>
	<path fill="#E6E6E6" d="M180.483,45.09l-1.506,5.165l-0.155,0.629c-0.018,0.077-0.023,0.135-0.023,0.171
		c0,0.063,0.021,0.117,0.064,0.163c0.045,0.047,0.09,0.07,0.136,0.07c0.109,0,0.261-0.083,0.45-0.249
		c0.079-0.066,0.265-0.307,0.561-0.716l0.271,0.142c-0.369,0.673-0.761,1.162-1.177,1.472c-0.416,0.308-0.866,0.462-1.347,0.462
		c-0.295,0-0.521-0.076-0.677-0.229c-0.155-0.152-0.232-0.346-0.232-0.578c0-0.202,0.081-0.578,0.249-1.126l0.186-0.629
		c-0.601,1.029-1.179,1.759-1.732,2.19c-0.32,0.247-0.661,0.372-1.022,0.372c-0.479,0-0.822-0.196-1.035-0.586
		c-0.211-0.392-0.319-0.833-0.319-1.325c0-0.729,0.225-1.566,0.669-2.513c0.445-0.943,1.029-1.704,1.755-2.279
		c0.595-0.476,1.156-0.713,1.678-0.713c0.291,0,0.523,0.084,0.7,0.252c0.174,0.167,0.304,0.475,0.388,0.92l0.279-0.955
		L180.483,45.09z M177.999,46.566c0-0.42-0.065-0.723-0.196-0.908c-0.093-0.131-0.22-0.195-0.379-0.195
		c-0.161,0-0.326,0.078-0.498,0.232c-0.348,0.323-0.72,0.973-1.123,1.954c-0.4,0.98-0.601,1.829-0.601,2.543
		c0,0.274,0.045,0.474,0.136,0.595c0.09,0.121,0.189,0.183,0.299,0.183c0.232,0,0.468-0.134,0.708-0.404
		c0.342-0.385,0.647-0.852,0.924-1.405C177.753,48.187,177.999,47.322,177.999,46.566z"/>
	<path fill="#E6E6E6" d="M185.064,44.982l-0.963,3.331c0.648-0.973,1.133-1.639,1.452-1.995c0.472-0.518,0.879-0.871,1.22-1.058
		c0.343-0.187,0.663-0.278,0.963-0.278c0.27,0,0.5,0.099,0.692,0.3c0.191,0.197,0.286,0.458,0.286,0.779
		c0,0.289-0.063,0.643-0.185,1.057l-0.996,3.315c-0.082,0.289-0.123,0.479-0.123,0.566c0,0.052,0.02,0.099,0.059,0.141
		c0.038,0.04,0.077,0.063,0.12,0.063c0.052,0,0.105-0.022,0.161-0.063c0.182-0.151,0.367-0.362,0.552-0.637
		c0.048-0.072,0.123-0.181,0.228-0.327l0.295,0.18c-0.761,1.278-1.563,1.917-2.401,1.917c-0.32,0-0.571-0.082-0.754-0.247
		c-0.181-0.167-0.271-0.373-0.271-0.623c0-0.217,0.063-0.54,0.188-0.97l0.97-3.315c0.068-0.219,0.101-0.379,0.101-0.482
		c0-0.057-0.023-0.107-0.068-0.15c-0.047-0.045-0.102-0.067-0.164-0.067c-0.195,0-0.435,0.135-0.715,0.404
		c-0.713,0.683-1.405,1.701-2.073,3.052L183,52.182h-1.979l1.451-4.987c0.139-0.49,0.209-0.84,0.209-1.048
		c0-0.087-0.021-0.162-0.063-0.221c-0.04-0.061-0.107-0.106-0.202-0.14c-0.093-0.035-0.269-0.052-0.527-0.052l0.086-0.294
		l2.616-0.458H185.064z"/>
	<path fill="#E6E6E6" d="M194.22,43.087l-0.619,2.112h1.017l-0.271,0.894h-1.002l-1.298,4.505c-0.082,0.277-0.124,0.491-0.124,0.635
		c0,0.067,0.023,0.128,0.07,0.176c0.048,0.049,0.1,0.074,0.155,0.074c0.088,0,0.179-0.036,0.271-0.109
		c0.239-0.181,0.516-0.498,0.832-0.947l0.271,0.172c-0.358,0.62-0.75,1.076-1.182,1.366c-0.429,0.291-0.851,0.435-1.265,0.435
		c-0.354,0-0.624-0.091-0.82-0.268c-0.194-0.18-0.291-0.406-0.291-0.681c0-0.299,0.068-0.685,0.202-1.156l1.227-4.201h-1.056
		l0.154-0.575c0.664-0.242,1.222-0.528,1.679-0.854c0.454-0.325,1.005-0.851,1.646-1.576H194.22z"/>
	<path fill="#E6E6E6" d="M200,44.982l-0.343,2.398h-0.287c-0.041-0.621-0.232-1.11-0.571-1.468c-0.338-0.356-0.702-0.535-1.09-0.535
		c-0.239,0-0.436,0.069-0.59,0.209c-0.156,0.141-0.233,0.309-0.233,0.506c0,0.164,0.032,0.321,0.102,0.465
		c0.066,0.146,0.215,0.342,0.45,0.591c0.816,0.881,1.314,1.486,1.491,1.817c0.175,0.331,0.263,0.687,0.263,1.064
		c0,0.407-0.103,0.796-0.311,1.159c-0.206,0.366-0.517,0.659-0.929,0.88c-0.411,0.219-0.84,0.329-1.284,0.329
		c-0.302,0-0.67-0.06-1.112-0.179c-0.288-0.083-0.506-0.125-0.65-0.125c-0.129,0-0.229,0.02-0.304,0.06
		c-0.073,0.038-0.153,0.119-0.241,0.244h-0.286l0.381-2.585h0.248c0.182,0.624,0.352,1.072,0.509,1.338
		c0.157,0.267,0.368,0.48,0.634,0.637c0.262,0.159,0.517,0.238,0.761,0.238c0.284,0,0.521-0.09,0.706-0.27
		c0.186-0.178,0.28-0.392,0.28-0.64c0-0.244-0.063-0.479-0.183-0.708c-0.124-0.229-0.404-0.581-0.843-1.063
		c-0.606-0.659-1.005-1.165-1.196-1.522c-0.136-0.259-0.202-0.555-0.202-0.886c0-0.559,0.202-1.025,0.609-1.397
		c0.407-0.373,0.979-0.559,1.713-0.559c0.321,0,0.716,0.057,1.181,0.17c0.232,0.059,0.418,0.086,0.559,0.086
		c0.202,0,0.366-0.086,0.489-0.256H200z"/>
</g>
<g>
</g>
<g>
</g>
<g>
</g>
<g>
</g>
<g>
</g>
<g>
</g>
<g>
</g>
<g>
</g>
<g>
</g>
<g>
</g>
<g>
</g>
<g>
</g>
<g>
</g>
<g>
</g>
<g>
</g>
</svg>
